<svg viewBox="0 0 1024 1024" class="icon" version="1.1" xmlns="http://www.w3.org/2000/svg" fill="#000000"><g id="SVGRepo_bgCarrier" stroke-width="0"></g><g id="SVGRepo_tracerCarrier" stroke-linecap="round" stroke-linejoin="round"></g><g id="SVGRepo_iconCarrier"><path d="M936.8 284.9v61.4c0 99.7-79.6 181.1-178.6 184.1 13.9 26.5 21.3 56 21.3 86.5 0 103-83.8 186.8-186.8 186.8h-56v115.5h52.9c11.4 0 20.7 9.3 20.7 20.7 0 11.4-9.3 20.7-20.7 20.7H516c-4.8 0-9.1-1.6-12.6-4.3-3.5 2.7-7.9 4.3-12.6 4.3h-73.6c-11.4 0-20.7-9.2-20.7-20.7V803.6h-26.3c-155.1 0-281.3-126.2-281.3-281.3v-71.7c0-11.4 9.3-20.7 20.7-20.7h312.1l-68-68c-33-33-51.2-76.9-51.2-123.6 0-46.7 18.2-90.6 51.2-123.6s76.9-51.2 123.6-51.2 90.6 18.2 123.6 51.2c26.9 26.9 44 61.4 49.4 98.6h215.1c39.3 0.1 71.4 32.2 71.4 71.6z" fill="#663333"></path><path d="M895.5 335.3v10.9c0 78.8-64.1 142.9-142.9 142.9-38 0-73.8-14.8-100.8-41.6l-0.2-0.2L496 291.8c-9.4-9.4-6.1-20.5-4.9-23.6 1.5-3.8 6.2-12.7 18.1-13.4h356.1c8.1 0 15.7 3.1 21.4 8.8 5.7 5.7 8.8 13.3 8.8 21.4v9.1H676.9c-11.4 0-20.7 9.3-20.7 20.7 0 11.4 9.3 20.7 20.7 20.7l218.6-0.2z" fill="#FFCC66"></path><path d="M704.8 524.2c21.6 26 33.4 58.7 33.4 92.7 0 80.2-65.3 145.5-145.5 145.5H370.2c-132.3 0-240-107.6-240-240v-51h341.3c8.4 0 15.9-5 19.1-12.7 3.2-7.7 1.4-16.6-4.5-22.5L382.9 332.8c-25.2-25.2-39.1-58.7-39.1-94.4s13.9-69.2 39.1-94.4c25.2-25.2 58.7-39.1 94.4-39.1s69.2 13.9 94.4 39.1c19.1 19.1 31.8 43.3 36.7 69.4 0 0-100.1 0-101.3 0.1-24.7 1.2-45.6 16.5-54.5 39.8-9.1 23.8-3.7 49.7 14.2 67.7l155.3 155.3 0.3 0.3c23.2 23.1 51.5 39.3 82.4 47.6z" fill="#FFFFFF"></path><path d="M567.3 594.4c11.4 0 20.7 9.2 20.7 20.7 0 29.9-11.6 58-32.8 79.2-21.2 21.1-49.3 32.8-79.2 32.8h-82.8c-112.1 0-203.3-91.2-203.3-203.3 0-5.5 2.2-10.7 6-14.6 3.9-3.9 9.1-6 14.6-6h223.7c11.4 0 20.7 9.2 20.7 20.7 0 11.4-9.3 20.7-20.7 20.7H232.4C242.6 624.2 310.8 686 393.1 686h82.8c18.9 0 36.7-7.4 50-20.7 13.4-13.4 20.7-31.1 20.7-50 0-11.6 9.3-20.9 20.7-20.9zM495.3 144.9c12.9 0 23.4 10.4 23.4 23.3s-10.5 23.4-23.4 23.4c-12.9 0-23.4-10.4-23.4-23.4 0.1-12.8 10.5-23.3 23.4-23.3z" fill="#663333"></path><path d="M495.3 919.7v-116h-57.5v115.5c0-0.1 56.1 0.1 57.5 0.5z" fill="#FFFFFF"></path></g></svg>